<?xml version="1.0" encoding="utf-8"?>
<!-- Generator: Adobe Illustrator 20.0.0, SVG Export Plug-In . SVG Version: 6.00 Build 0)  -->
<svg version="1.1" id="ChantryIslandLogo_x5F_recreated"
	 xmlns="http://www.w3.org/2000/svg" xmlns:xlink="http://www.w3.org/1999/xlink" x="0px" y="0px" viewBox="0 0 134.3 175.2"
	 style="enable-background:new 0 0 134.3 175.2;" xml:space="preserve">
<style type="text/css">
	.st0{fill:#9A1E22;}
	.st1{fill:#F9F9FA;}
	.st2{fill:#434343;}
	.st3{fill:#434444;}
	.st4{fill:#C12430;}
	.st5{fill:#C02230;}
	.st6{fill:#2B2B2B;}
	.st7{fill:#2D2D2D;}
	.st8{fill:none;}
	.st9{font-family:'STIXGeneral-Bold';}
	.st10{font-size:16px;}
	.st11{font-size:18px;}
	.st12{fill:#F9F9FA;stroke:#2B2B2B;stroke-miterlimit:10;}
	.st13{fill:#45587F;}


</style>
<g id="Layer_6">
	<g>
		<path class="st0" d="M17.9,83.7c4.7-23,25.1-40.3,49.4-40.3c24.3,0,44.7,17.3,49.4,40.3l4-0.2c-4.8-25.1-26.9-44.1-53.4-44.1
			c-26.5,0-48.6,19-53.4,44.2L17.9,83.7z"/>
		<path class="st0" d="M116.2,106.2c-5.5,21.8-25.3,38-48.9,38c-23.5,0-43.3-16.2-48.9-38l-4.1,0.1c5.7,24,27.2,41.9,52.9,41.9
			c25.7,0,47.3-17.9,52.9-41.9L116.2,106.2z"/>
	</g>
</g>
<g id="lighthouse">
	<g id="lighthouseBaseStroke_1_">
		<path class="st1" d="M66.7,56.4c3.1,0,6,0.4,8.9,1.1c-1.1-15.3-1.7-33.9-1.7-33.9c-2.7-0.7-5.6-0.7-7.8-0.6
			c-2.3-0.2-5.1-0.1-7.8,0.6c0,0-0.6,18.9-1.7,34.2C59.8,56.9,63.2,56.4,66.7,56.4z"/>
		<path class="st2" d="M66.7,56.2c3,0,6,0.4,8.9,1.1l0,0l-0.3,0.3c-0.3-5.6-0.6-11.3-0.8-17c-0.1-2.8-0.2-5.7-0.4-8.5l-0.5-8.5l0,0
			l0.2,0.2c-2.5-0.7-5.2-0.8-7.8-0.6l0,0l0,0c-2.6-0.2-5.2-0.1-7.8,0.6l0,0l0.2-0.2L58,32.2l-0.2,4.3l-0.2,4.3
			c-0.2,5.7-0.5,11.4-0.8,17.1l0,0l-0.3-0.3C59.8,56.6,63.3,56.2,66.7,56.2z M66.7,56.7c-3.4,0-6.8,0.5-10.1,1.4l-0.3,0.1l0-0.4l0,0
			c0.4-5.7,0.8-11.4,1.1-17.1l0.2-4.3c0.1-1.4,0.1-2.9,0.2-4.3c0.1-2.9,0.2-5.7,0.2-8.6l0-0.2l0.2,0l0,0c2.6-0.7,5.3-0.8,7.9-0.6h0
			c2.6-0.2,5.3-0.1,7.9,0.6l0.2,0l0,0.2l0,0c0,2.8,0.1,5.7,0.2,8.5c0.1,2.8,0.2,5.7,0.4,8.5c0.3,5.6,0.7,11.3,1.1,16.9l0,0.3
			l-0.3-0.1l0,0C72.7,57,69.7,56.7,66.7,56.7z"/>
	</g>
	<g id="lighthouseTop">
		<path id="lighthouseWindow_1_" class="st3" d="M71.2,10.7L71.2,10.7v0.9l-0.8-0.1v-0.9L71.2,10.7c-0.4-0.5-1-0.8-1.6-0.8h-6.7
			c-0.6,0-1.2,0.3-1.6,0.7h0.8v0.9l-0.8,0.1l0.1-0.9l-0.1-0.1c-0.4,0.4-0.6,0.9-0.6,1.5v6.8h11v-6.8C71.8,11.6,71.6,11.1,71.2,10.7z
			 M61.9,17.4l-0.8,0.1v-1h0.8V17.4z M61.9,15.4l-0.8,0.1v-1h0.8V15.4z M61.9,13.4l-0.8,0.1v-1h0.8V13.4z M63.8,17.3h-0.9v-0.9h0.9
			V17.3z M63.8,15.4h-0.9v-0.9h0.9V15.4z M63.8,13.3l-0.9,0.1v-0.9h0.9V13.3z M63.8,11.5h-0.9v-0.9h0.9V11.5z M65.7,17.3h-0.9v-0.9
			l0.9-0.1V17.3z M65.7,15.4h-0.9v-0.9l0.9-0.1V15.4z M65.7,13.4h-0.9v-0.9l0.9-0.1V13.4z M65.7,11.5h-0.9v-0.9l0.9-0.1L65.7,11.5z
			 M67.7,17.3h-0.9v-1l0.9,0.1V17.3z M67.7,15.4h-0.9v-1.1l0.9,0.1V15.4z M67.7,13.4h-0.9v-1.1l0.9,0.1V13.4z M67.7,11.5h-0.9l0-1.1
			l0.9,0.1V11.5z M69.7,17.3h-0.9v-0.9h0.9V17.3z M69.7,15.4h-0.9v-0.9h0.9V15.4z M69.7,13.4l-0.9-0.1v-0.8h0.9V13.4z M69.7,11.5
			h-0.9v-0.9h0.9V11.5z M71.4,17.5l-0.8-0.1v-0.9h0.8V17.5z M71.4,15.5l-0.8-0.1v-0.9h0.8V15.5z M71.4,13.5l-0.8-0.1v-0.9h0.8V13.5z
			"/>
		<path id="topBase_2_" class="st4" d="M74.7,22.9c0,0-0.1-1.9,0.6-2.4s-2.1-1.8-4.1-2.3c-2-0.4-10.3-1-14.1,1.9
			c0,0-0.2,0.3,0.2,0.4s0.6,2.4,0.6,2.4H74.7z"/>
		<path id="topRoof_1_" class="st5" d="M67.2,5.9l0.4,0.2c0.5,0.2,1,0.5,1.4,0.8c0.3,0.3,0.6,0.5,0.8,0.8l2.9,3.5l-4.6-0.7
			c-1.3-0.2-2.6-0.2-3.8,0l-4.6,0.7l2.6-3c0,0,0,0,0.1-0.1c0.6-0.8,1.4-1.5,2.3-1.9L65,6C65.7,5.8,66.5,5.7,67.2,5.9z"/>
		<path id="topPoint_2_" class="st5" d="M66.2,6c0,0,2-1.5,0-3.3C66.2,2.7,64.3,4.4,66.2,6"/>
		<rect x="70.7" y="49.7" class="st6" width="0.9" height="3.7"/>
		<rect x="60.6" y="40.8" class="st6" width="0.9" height="3.7"/>
	</g>
	<path id="lighthouseRim_1_" class="st7" d="M58.9,22.3c0,0-1.5,0.3-2,1.7c0,0-0.3,1,1.4,0.9s1.6-0.7,3.3-0.9
		c1.7-0.3,3.2,0.1,3.2,0.1s1.3,0.3,1.9,0c0.6-0.3,3.7-0.4,4.4,0c0.7,0.3,2.2,0.9,2.2,0.9s2.7,0.1,1.6-1.9c0,0,0-0.7-3.6-1.1
		C71.4,22,60.5,21.7,58.9,22.3z"/>
</g>
<g id="middleCircle">
	<g id="bottomCircle">
		<path id="BottomCircleShape_1_" class="st6" d="M102.6,105.8C102.6,105.8,102.6,105.8,102.6,105.8l-1,0c-4.9,14.5-18.7,25-34.8,25
			c-16.1,0-29.9-10.5-34.8-25l-1,0l0,0L11,106c0.1,0.3,0.2,0.7,0.2,1l20-0.3c5.2,14.6,19.2,25,35.5,25c16.4,0,30.3-10.5,35.5-25
			l20.8,0.3c0.1-0.3,0.2-0.7,0.2-1L102.6,105.8z"/>
	</g>
	<g id="topCircle">
		<path id="topCircleShape" class="st6" d="M123.5,83.9c-0.1-0.3-0.1-0.7-0.2-1L103,83.4c-4.6-15.7-19.1-27.2-36.3-27.2
			c-17.5,0-32.2,11.9-36.5,28.1c0.1-0.3,0.2-0.6,0.3-0.9l-19.6-0.6c-0.1,0.3-0.1,0.7-0.2,1l19.5,0.5l1,0
			c4.2-15.6,18.5-27.2,35.5-27.2c17,0,31.3,11.6,35.5,27.2l1,0c0,0,0,0,0,0L123.5,83.9z"/>
	</g>
	<g id="topCircle_copy">
	</g>
</g>
<g id="Text">
	<rect x="31.8" y="73.7" class="st8" width="69.3" height="59.7"/>
	<text transform="matrix(1 0 0 1 41.1829 84.4974)"><tspan x="0" y="0" class="st0 st9 st10">Marine</tspan><tspan x="-8.2" y="16" class="st0 st9 st11">Heritage</tspan><tspan x="0.9" y="32" class="st0 st9 st10">Society</tspan></text>
</g>
<g id="allCompassPoints">
	<g id="bigPoint">
		<path id="bigPointShape" class="st12" d="M66.7,131.2c-3.2,0-6.3-0.4-9.3-1.2l8.9,40l7.8-39.6C71.8,131,69.3,131.2,66.7,131.2z"/>
		<path id="coloredHalf" class="st13" d="M73.8,131.1c-2.4,0.4-5,0.6-7.5,0.6c0,11.7,0,36.4,0,36.4"/>
	</g>
	<g id="compassPoints">
		<g id="bottomPoints_1_">
			<path id="bottomLeft_1_" class="st13" d="M37.4,117.7l-3.6,7l6.6-3.6C39.4,120,38.4,118.9,37.4,117.7z"/>
			<path id="bottomRight_1_" class="st13" d="M92.5,121.5l7.3,4.2l-4.2-7.5C94.7,119.4,93.6,120.5,92.5,121.5z"/>
		</g>
		<g id="topPoints_1_">
			<path id="topRight_1_" class="st13" d="M95.4,69.4l4.4-7.9l-7.3,4.8C93.5,67.4,94.5,68.4,95.4,69.4z"/>
			<path id="topLeft_1_" class="st13" d="M40.7,66.6l-7.8-5.1l4.7,8.4C38.6,68.8,39.6,67.7,40.7,66.6z"/>
		</g>
	</g>
</g>
<g id="lighthouseBaseRim">
	<path id="SVGID_x5F_1_x5F_" class="st8" d="M29.5,49.3c0,0,32.5-31.9,76.8,0"/>
	<text>	<textPath  xlink:href="#SVGID_x5F_1_x5F_" startOffset="0%">
<tspan id="smallText" class="st13 st9" style="font-size:8px;">Chantry Island Tours</tspan>	</textPath>
</text>
</g>
</svg>
